/* XPM */
static char *collectible[] = {
/* columns rows colors chars-per-pixel */
"32 32 2 1",
"  c #00FFFF",
". c None",
/* pixels */
"................................",
"................................",
"................................",
"................................",
"................................",
"................................",
"................................",
"................................",
"........                ........",
"........                ........",
"........                ........",
"........                ........",
"........                ........",
"........                ........",
"........                ........",
"........                ........",
"........                ........",
"........                ........",
"........                ........",
"........                ........",
"........                ........",
"........                ........",
"........                ........",
"........                ........",
"................................",
"................................",
"................................",
"................................",
"................................",
"................................",
"................................",
"................................"
};
