/* XPM */
static char *player[] = {
/* columns rows colors chars-per-pixel */
"32 32 2 1",
"  c #0000FF",
". c None",
/* pixels */
"................................",
"................................",
"................................",
"................................",
"................................",
"................................",
"................................",
"................................",
"........                ........",
"........                ........",
"........                ........",
"........                ........",
"........                ........",
"........                ........",
"........                ........",
"........                ........",
"........                ........",
"........                ........",
"........                ........",
"........                ........",
"........                ........",
"........                ........",
"........                ........",
"........                ........",
"................................",
"................................",
"................................",
"................................",
"................................",
"................................",
"................................",
"................................"
};
